<svg width="48" height="48" viewBox="0 0 48 48" fill="none" xmlns="http://www.w3.org/2000/svg">
<path d="M36 14V34C36 35.24 35.96 36.34 35.82 37.32C35.24 42.58 32.76 44 26 44H22C15.24 44 12.76 42.58 12.18 37.32C12.04 36.34 12 35.24 12 34V14C12 12.76 12.04 11.66 12.18 10.68C12.76 5.42 15.24 4 22 4H26C32.76 4 35.24 5.42 35.82 10.68C35.96 11.66 36 12.76 36 14Z" stroke="white" stroke-width="2" stroke-linecap="round" stroke-linejoin="round"/>
<path d="M12 34.0002C12 35.2402 12.04 36.3402 12.18 37.3202C11.9 37.3402 11.64 37.3402 11.34 37.3402H10.66C5.34 37.3402 4 36.0002 4 30.6602V17.3402C4 12.0002 5.34 10.6602 10.66 10.6602H11.34C11.64 10.6602 11.9 10.6602 12.18 10.6802C12.04 11.6602 12 12.7602 12 14.0002V34.0002Z" stroke="white" stroke-width="2" stroke-linecap="round" stroke-linejoin="round"/>
<path d="M44 17.3402V30.6602C44 36.0002 42.66 37.3402 37.34 37.3402H36.66C36.36 37.3402 36.1 37.3402 35.82 37.3202C35.96 36.3402 36 35.2402 36 34.0002V14.0002C36 12.7602 35.96 11.6602 35.82 10.6802C36.1 10.6602 36.36 10.6602 36.66 10.6602H37.34C42.66 10.6602 44 12.0002 44 17.3402Z" stroke="white" stroke-width="2" stroke-linecap="round" stroke-linejoin="round"/>
</svg>
