<svg width="48" height="48" viewBox="0 0 48 48" fill="none" xmlns="http://www.w3.org/2000/svg">
<path d="M21 39.8V8.2C21 5.2 19.72 4 16.54 4H8.46C5.28 4 4 5.2 4 8.2V39.8C4 42.8 5.28 44 8.46 44H16.54C19.72 44 21 42.8 21 39.8Z" stroke="white" stroke-width="2" stroke-linecap="round" stroke-linejoin="round"/>
<path d="M44 39.8V8.2C44 5.2 42.72 4 39.54 4H31.46C28.28 4 27 5.2 27 8.2V39.8C27 42.8 28.28 44 31.46 44H39.54C42.72 44 44 42.8 44 39.8Z" stroke="white" stroke-width="2" stroke-linecap="round" stroke-linejoin="round"/>
</svg>
