<svg width="273" height="72" viewBox="0 0 273 72" fill="none" xmlns="http://www.w3.org/2000/svg">
<path d="M40.9046 6.18278L34.5734 4.48633L29.238 24.3983L24.4211 6.42164L18.0898 8.1181L23.2941 27.5406L10.3314 14.5779L5.69656 19.2126L19.9151 33.4313L2.20817 28.6867L0.511719 35.0179L19.8588 40.2019C19.6373 39.2465 19.5201 38.2511 19.5201 37.2282C19.5201 29.9882 25.3892 24.119 32.6293 24.119C39.8693 24.119 45.7385 29.9882 45.7385 37.2282C45.7385 38.2445 45.6227 39.2338 45.404 40.1836L62.9869 44.8949L64.6832 38.5637L45.2593 33.359L62.9674 28.6141L61.2709 22.2829L41.8477 27.4873L54.8104 14.5246L50.1756 9.88984L36.1543 23.9112L40.9046 6.18278Z" fill="#808080"/>
<path d="M45.3855 40.2573C44.8427 42.5522 43.6967 44.6138 42.1243 46.2656L54.8623 59.0037L59.4971 54.3689L45.3855 40.2573Z" fill="#808080"/>
<path d="M41.9957 46.3987C40.4043 48.0241 38.3932 49.2371 36.1379 49.8621L40.7731 67.1606L47.1042 65.464L41.9957 46.3987Z" fill="#808080"/>
<path d="M35.9015 49.9254C34.8551 50.1944 33.7584 50.3374 32.6282 50.3374C31.4173 50.3374 30.2448 50.1732 29.1316 49.8659L24.4923 67.1801L30.8235 68.8764L35.9015 49.9254Z" fill="#808080"/>
<path d="M28.9078 49.802C26.6869 49.1459 24.7116 47.9175 23.1527 46.2875L10.3834 59.0568L15.0182 63.6917L28.9078 49.802Z" fill="#808080"/>
<path d="M23.0475 46.1746C21.5153 44.5342 20.3993 42.5001 19.8681 40.2407L2.22778 44.9674L3.92422 51.2986L23.0475 46.1746Z" fill="#808080"/>
<path d="M102.78 19.3638V42.1788L88.1547 19.3638H82.3047V50.8638H88.1547V28.2288L102.78 50.8638H108.63V19.3638H102.78Z" fill="#808080"/>
<path d="M111.266 25.2588H117.296V19.3638H111.266V25.2588ZM111.356 50.8638V28.3638H117.206V50.8638H111.356Z" fill="#808080"/>
<path d="M142.376 39.6138C142.376 31.8288 136.841 28.1388 130.991 28.0938C125.096 28.0488 119.651 31.8288 119.651 39.6138C119.651 47.3988 125.096 51.1788 130.991 51.1338C136.346 51.0888 140.036 48.6138 141.746 44.5188L137.201 42.6288C135.806 45.4188 133.601 46.4088 130.991 46.4538C128.741 46.4988 126.176 45.4188 125.636 41.4138H142.241C142.331 40.8288 142.376 40.2438 142.376 39.6138ZM130.991 32.7288C133.241 32.7738 135.536 33.9888 136.256 37.2288H125.726C126.491 33.9438 128.786 32.6838 130.991 32.7288Z" fill="#808080"/>
<path d="M155.896 32.5488V28.0938H152.206V22.0638L146.356 23.8638V28.0938H142.666V32.5488H146.356V44.2038C146.356 48.6138 146.716 50.8638 153.556 50.8638H155.131V45.7338H153.556C152.476 45.7338 152.206 45.5538 152.206 44.2038V32.5488H155.896Z" fill="#808080"/>
<path d="M164.588 45.9588L177.008 33.2688V28.3638H158.378V33.2688H170.438L158.018 45.9588V50.8638H177.143V45.9588H164.588Z" fill="#808080"/>
<path d="M179.241 44.5188L185.136 43.6188C185.541 45.8688 188.196 46.7238 189.816 46.7238C191.481 46.7238 194.361 46.3638 194.361 43.6638C194.361 38.3988 179.916 44.9688 179.916 34.8888C179.916 28.4088 187.431 28.0488 189.816 28.0488C192.066 28.0488 198.591 28.4088 199.941 33.6288L194.361 34.7988C193.866 32.4138 191.346 31.9638 189.996 31.9638C188.646 31.9638 185.766 32.2788 185.766 34.8888C185.766 40.1088 200.211 33.4488 200.211 43.6638C200.211 50.5488 192.291 51.1338 189.816 51.1338C187.566 51.1338 180.411 50.5488 179.241 44.5188Z" fill="#808080"/>
<path d="M207.81 39.6138C207.81 45.1038 210.735 46.7688 213.795 46.7238C216.54 46.6788 218.43 45.5538 219.555 42.4038L224.37 44.7438C222.615 49.3338 218.34 51.0888 213.795 51.1338C207.9 51.1788 201.96 47.3988 201.96 39.6138C201.96 31.8288 207.9 28.0488 213.795 28.0938C218.34 28.1388 222.615 29.8938 224.37 34.4838L219.555 36.8238C218.43 33.6738 216.54 32.5488 213.795 32.5038C210.735 32.4588 207.81 34.1238 207.81 39.6138Z" fill="#808080"/>
<path d="M240.075 28.0038C237.06 28.0038 234.315 29.5788 232.56 32.9538V19.3638H226.71V50.8638H232.56V42.8988C232.56 32.5938 236.835 31.7388 238.41 31.7388C240.93 31.7388 241.29 34.3488 241.29 38.1738V50.8638H247.14V38.1738C247.14 33.4038 246.375 28.0038 240.075 28.0038Z" fill="#808080"/>
<path d="M271.839 39.6138C271.839 31.8288 266.304 28.1388 260.454 28.0938C254.559 28.0488 249.114 31.8288 249.114 39.6138C249.114 47.3988 254.559 51.1788 260.454 51.1338C265.809 51.0888 269.499 48.6138 271.209 44.5188L266.664 42.6288C265.269 45.4188 263.064 46.4088 260.454 46.4538C258.204 46.4988 255.639 45.4188 255.099 41.4138H271.704C271.794 40.8288 271.839 40.2438 271.839 39.6138ZM260.454 32.7288C262.704 32.7738 264.999 33.9888 265.719 37.2288H255.189C255.954 33.9438 258.249 32.6838 260.454 32.7288Z" fill="#808080"/>
</svg>
