<svg width="253" height="72" viewBox="0 0 253 72" fill="none" xmlns="http://www.w3.org/2000/svg">
<rect y="28.7998" width="14.3716" height="14.4" fill="#808080"/>
<rect x="43.1152" y="43.2002" width="14.3716" height="14.4" transform="rotate(180 43.1152 43.2002)" fill="#808080"/>
<path opacity="0.4" d="M14.3721 28.7999L28.7436 14.3999V28.7999L14.3721 43.1999V28.7999Z" fill="#808080"/>
<path opacity="0.6" d="M28.7432 43.2001L14.3716 57.6001L14.3716 43.2001L28.7432 28.8001L28.7432 43.2001Z" fill="#808080"/>
<path opacity="0.8" d="M0 28.8L28.7432 0V14.4L14.3716 28.8H0Z" fill="#808080"/>
<path opacity="0.8" d="M43.1143 43.2L14.3711 72L14.3711 57.6L28.7427 43.2L43.1143 43.2Z" fill="#808080"/>
<path d="M74.4148 51.4202C72.1513 51.4202 69.9576 51.0982 67.8338 50.4542C65.738 49.8102 64.0753 48.9562 62.8457 47.8922L64.732 43.6502C65.9336 44.6022 67.4007 45.3862 69.1333 46.0022C70.8938 46.5902 72.6543 46.8842 74.4148 46.8842C76.5945 46.8842 78.2153 46.5342 79.2772 45.8342C80.3671 45.1342 80.912 44.2102 80.912 43.0622C80.912 42.2222 80.6046 41.5362 79.9898 41.0042C79.403 40.4442 78.6485 40.0102 77.7263 39.7022C76.8041 39.3942 75.5466 39.0442 73.9537 38.6522C71.7182 38.1202 69.9018 37.5882 68.5045 37.0562C67.1352 36.5242 65.9476 35.6982 64.9416 34.5782C63.9635 33.4302 63.4745 31.8902 63.4745 29.9582C63.4745 28.3342 63.9076 26.8642 64.7739 25.5482C65.6681 24.2042 66.9955 23.1402 68.756 22.3562C70.5445 21.5722 72.7242 21.1802 75.2951 21.1802C77.0836 21.1802 78.8441 21.4042 80.5767 21.8522C82.3092 22.3002 83.8043 22.9442 85.0618 23.7842L83.3432 28.0262C82.0577 27.2702 80.7164 26.6962 79.3191 26.3042C77.9219 25.9122 76.5666 25.7162 75.2532 25.7162C73.1014 25.7162 71.4946 26.0802 70.4327 26.8082C69.3988 27.5362 68.8818 28.5022 68.8818 29.7062C68.8818 30.5462 69.1752 31.2322 69.762 31.7642C70.3768 32.2962 71.1453 32.7162 72.0675 33.0242C72.9897 33.3322 74.2472 33.6822 75.84 34.0742C78.0197 34.5782 79.8082 35.1102 81.2054 35.6702C82.6027 36.2022 83.7903 37.0282 84.7684 38.1482C85.7744 39.2682 86.2774 40.7802 86.2774 42.6842C86.2774 44.3082 85.8303 45.7782 84.936 47.0942C84.0698 48.4102 82.7424 49.4602 80.9539 50.2442C79.1654 51.0282 76.9858 51.4202 74.4148 51.4202Z" fill="#808080"/>
<path d="M91.1778 28.5722H96.4174V51.0002H91.1778V28.5722ZM93.8185 24.8762C92.8684 24.8762 92.072 24.5822 91.4293 23.9942C90.7865 23.3782 90.4652 22.6222 90.4652 21.7262C90.4652 20.8302 90.7865 20.0882 91.4293 19.5002C92.072 18.8842 92.8684 18.5762 93.8185 18.5762C94.7687 18.5762 95.5651 18.8702 96.2078 19.4582C96.8506 20.0182 97.1719 20.7322 97.1719 21.6002C97.1719 22.5242 96.8506 23.3082 96.2078 23.9522C95.593 24.5682 94.7966 24.8762 93.8185 24.8762Z" fill="#808080"/>
<path d="M110.211 51.2942C108.394 51.2942 106.62 51.0562 104.887 50.5802C103.155 50.1042 101.771 49.5022 100.737 48.7742L102.75 44.7842C103.756 45.4562 104.957 46.0022 106.354 46.4222C107.78 46.8142 109.177 47.0102 110.546 47.0102C113.676 47.0102 115.241 46.1842 115.241 44.5322C115.241 43.7482 114.836 43.2022 114.025 42.8942C113.243 42.5862 111.971 42.2922 110.211 42.0122C108.366 41.7322 106.857 41.4102 105.684 41.0462C104.538 40.6822 103.532 40.0522 102.666 39.1562C101.827 38.2322 101.408 36.9582 101.408 35.3342C101.408 33.2062 102.288 31.5122 104.049 30.2522C105.837 28.9642 108.241 28.3202 111.259 28.3202C112.796 28.3202 114.333 28.5022 115.87 28.8662C117.407 29.2022 118.664 29.6642 119.642 30.2522L117.63 34.2422C115.73 33.1222 113.592 32.5622 111.217 32.5622C109.68 32.5622 108.506 32.8002 107.696 33.2762C106.913 33.7242 106.522 34.3262 106.522 35.0822C106.522 35.9222 106.941 36.5242 107.78 36.8882C108.646 37.2242 109.973 37.5462 111.762 37.8542C113.55 38.1342 115.017 38.4562 116.163 38.8202C117.309 39.1842 118.287 39.8002 119.097 40.6682C119.936 41.5362 120.355 42.7682 120.355 44.3642C120.355 46.4642 119.447 48.1442 117.63 49.4042C115.814 50.6642 113.341 51.2942 110.211 51.2942Z" fill="#808080"/>
<path d="M145.416 28.5722L134.937 52.8062C133.959 55.2422 132.771 56.9502 131.374 57.9302C129.977 58.9382 128.286 59.4422 126.302 59.4422C125.184 59.4422 124.08 59.2602 122.991 58.8962C121.901 58.5322 121.007 58.0282 120.308 57.3842L122.404 53.5202C122.907 53.9962 123.494 54.3742 124.164 54.6542C124.863 54.9342 125.562 55.0742 126.26 55.0742C127.182 55.0742 127.937 54.8362 128.524 54.3602C129.138 53.8842 129.697 53.0862 130.2 51.9662L130.578 51.0842L120.811 28.5722H126.26L133.302 45.1622L140.386 28.5722H145.416Z" fill="#808080"/>
<path d="M161.099 28.3202C163.278 28.3202 165.22 28.7962 166.925 29.7482C168.658 30.7002 170.013 32.0442 170.991 33.7802C171.969 35.5162 172.458 37.5182 172.458 39.7862C172.458 42.0542 171.969 44.0702 170.991 45.8342C170.013 47.5702 168.658 48.9142 166.925 49.8662C165.22 50.8182 163.278 51.2942 161.099 51.2942C158.08 51.2942 155.691 50.2862 153.931 48.2702V59.1482H148.691V28.5722H153.679V31.5122C154.545 30.4482 155.607 29.6502 156.865 29.1182C158.15 28.5862 159.562 28.3202 161.099 28.3202ZM160.512 46.8002C162.44 46.8002 164.019 46.1562 165.248 44.8682C166.506 43.5802 167.135 41.8862 167.135 39.7862C167.135 37.6862 166.506 35.9922 165.248 34.7042C164.019 33.4162 162.44 32.7722 160.512 32.7722C159.254 32.7722 158.122 33.0662 157.116 33.6542C156.11 34.2142 155.314 35.0262 154.727 36.0902C154.14 37.1542 153.847 38.3862 153.847 39.7862C153.847 41.1862 154.14 42.4182 154.727 43.4822C155.314 44.5462 156.11 45.3722 157.116 45.9602C158.122 46.5202 159.254 46.8002 160.512 46.8002Z" fill="#808080"/>
<path d="M190.128 28.3202C192.951 28.3202 195.214 29.1462 196.919 30.7982C198.623 32.4502 199.476 34.9002 199.476 38.1482V51.0002H194.236V38.8202C194.236 36.8602 193.775 35.3902 192.853 34.4102C191.931 33.4022 190.617 32.8982 188.913 32.8982C186.984 32.8982 185.461 33.4862 184.344 34.6622C183.226 35.8102 182.667 37.4762 182.667 39.6602V51.0002H177.427V19.8362H182.667V31.1762C183.533 30.2522 184.595 29.5522 185.853 29.0762C187.138 28.5722 188.563 28.3202 190.128 28.3202Z" fill="#808080"/>
<path d="M227.794 28.5722V51.0002H222.805V48.1442C221.967 49.1522 220.919 49.9362 219.662 50.4962C218.404 51.0282 217.049 51.2942 215.596 51.2942C212.606 51.2942 210.244 50.4682 208.512 48.8162C206.807 47.1362 205.955 44.6582 205.955 41.3822V28.5722H211.194V40.6682C211.194 42.6842 211.642 44.1962 212.536 45.2042C213.458 46.1842 214.757 46.6742 216.434 46.6742C218.306 46.6742 219.787 46.1002 220.877 44.9522C221.995 43.7762 222.554 42.0962 222.554 39.9122V28.5722H227.794Z" fill="#808080"/>
<path d="M241.57 51.2942C239.754 51.2942 237.979 51.0562 236.247 50.5802C234.514 50.1042 233.131 49.5022 232.097 48.7742L234.109 44.7842C235.115 45.4562 236.317 46.0022 237.714 46.4222C239.139 46.8142 240.536 47.0102 241.906 47.0102C245.035 47.0102 246.6 46.1842 246.6 44.5322C246.6 43.7482 246.195 43.2022 245.385 42.8942C244.602 42.5862 243.331 42.2922 241.57 42.0122C239.726 41.7322 238.217 41.4102 237.043 41.0462C235.897 40.6822 234.891 40.0522 234.025 39.1562C233.187 38.2322 232.768 36.9582 232.768 35.3342C232.768 33.2062 233.648 31.5122 235.408 30.2522C237.197 28.9642 239.6 28.3202 242.618 28.3202C244.155 28.3202 245.692 28.5022 247.229 28.8662C248.766 29.2022 250.024 29.6642 251.002 30.2522L248.99 34.2422C247.089 33.1222 244.952 32.5622 242.576 32.5622C241.039 32.5622 239.866 32.8002 239.055 33.2762C238.273 33.7242 237.882 34.3262 237.882 35.0822C237.882 35.9222 238.301 36.5242 239.139 36.8882C240.005 37.2242 241.333 37.5462 243.121 37.8542C244.91 38.1342 246.377 38.4562 247.523 38.8202C248.668 39.1842 249.646 39.8002 250.457 40.6682C251.295 41.5362 251.714 42.7682 251.714 44.3642C251.714 46.4642 250.806 48.1442 248.99 49.4042C247.173 50.6642 244.7 51.2942 241.57 51.2942Z" fill="#808080"/>
</svg>
