<svg width="283" height="72" viewBox="0 0 283 72" fill="none" xmlns="http://www.w3.org/2000/svg">
<path d="M32.3126 6C26.8622 6 22.46 10.3564 22.46 15.75C22.46 21.1022 26.8622 25.4585 32.2706 25.5C30.929 25.4585 29.8809 24.3798 29.8809 23.0521C29.8809 21.7245 30.9709 20.6043 32.3545 20.6043C38.2241 20.6043 51.2631 20.6043 57.007 20.6043C61.0737 20.6043 64.3859 17.3266 64.3859 13.3022C64.3859 9.27766 61.0737 6 57.007 6L32.3126 6Z" fill="#808080"/>
<path opacity="0.9" d="M20.334 25.5C14.8837 25.5 10.4814 29.8564 10.4814 35.25C10.4814 40.6022 14.8837 44.9585 20.2921 45C18.9505 44.9585 17.9023 43.8798 17.9023 42.5521C17.9023 41.2245 18.9924 40.1043 20.376 40.1043C26.2456 40.1043 39.2846 40.1043 45.0284 40.1043C49.0952 40.1043 52.4074 36.8266 52.4074 32.8022C52.4074 28.7777 49.0952 25.5 45.0284 25.5L20.334 25.5Z" fill="#808080"/>
<path opacity="0.8" d="M12.0534 45C6.21373 45 1.49707 49.6915 1.49707 55.5C1.49707 61.2639 6.21373 65.9553 12.0085 66C10.571 65.9553 9.44802 64.7937 9.44802 63.3638C9.44802 61.934 10.616 60.7277 12.0984 60.7277C18.3872 60.7277 32.3576 60.7277 38.5117 60.7277C42.869 60.7277 46.4177 57.1979 46.4177 52.8639C46.4177 48.5298 42.869 45 38.5117 45L12.0534 45Z" fill="#808080"/>
<path d="M79.3301 50.8639V19.3639H99.5444V24.7639H85.2596V32.2789H98.2866V37.6789H85.2596V45.4639H99.8139V50.8639H79.3301Z" fill="#808080"/>
<path d="M102.137 59.8639V28.5439H107.707V31.2439H108.516C109.025 30.3739 109.818 29.6089 110.896 28.9489C111.974 28.2589 113.517 27.9139 115.523 27.9139C117.32 27.9139 118.982 28.3639 120.509 29.2639C122.037 30.1339 123.264 31.4239 124.193 33.1339C125.121 34.8439 125.585 36.9139 125.585 39.3439V40.0639C125.585 42.4939 125.121 44.5639 124.193 46.2739C123.264 47.9839 122.037 49.2889 120.509 50.1889C118.982 51.0589 117.32 51.4939 115.523 51.4939C114.176 51.4939 113.038 51.3289 112.109 50.9989C111.211 50.6989 110.477 50.3089 109.908 49.8289C109.369 49.3189 108.935 48.8089 108.605 48.2989H107.797V59.8639H102.137ZM113.816 46.5439C115.583 46.5439 117.035 45.9889 118.173 44.8789C119.341 43.7389 119.925 42.0889 119.925 39.9289V39.4789C119.925 37.3189 119.341 35.6839 118.173 34.5739C117.006 33.4339 115.553 32.8639 113.816 32.8639C112.079 32.8639 110.627 33.4339 109.459 34.5739C108.291 35.6839 107.707 37.3189 107.707 39.4789V39.9289C107.707 42.0889 108.291 43.7389 109.459 44.8789C110.627 45.9889 112.079 46.5439 113.816 46.5439Z" fill="#808080"/>
<path d="M128.536 50.8639V28.5439H134.196V50.8639H128.536ZM131.366 25.9339C130.348 25.9339 129.48 25.6039 128.761 24.9439C128.072 24.2839 127.728 23.4139 127.728 22.3339C127.728 21.2539 128.072 20.3839 128.761 19.7239C129.48 19.0639 130.348 18.7339 131.366 18.7339C132.415 18.7339 133.283 19.0639 133.972 19.7239C134.661 20.3839 135.005 21.2539 135.005 22.3339C135.005 23.4139 134.661 24.2839 133.972 24.9439C133.283 25.6039 132.415 25.9339 131.366 25.9339Z" fill="#808080"/>
<path d="M148.689 51.4939C146.533 51.4939 144.571 51.0439 142.804 50.1439C141.067 49.2439 139.69 47.9389 138.672 46.2289C137.653 44.5189 137.144 42.4489 137.144 40.0189V39.3889C137.144 36.9589 137.653 34.8889 138.672 33.1789C139.69 31.4689 141.067 30.1639 142.804 29.2639C144.571 28.3639 146.533 27.9139 148.689 27.9139C150.815 27.9139 152.642 28.2889 154.169 29.0389C155.697 29.7889 156.924 30.8239 157.853 32.1439C158.811 33.4339 159.44 34.9039 159.739 36.5539L154.259 37.7239C154.139 36.8239 153.87 36.0139 153.451 35.2939C153.031 34.5739 152.432 34.0039 151.654 33.5839C150.905 33.1639 149.962 32.9539 148.824 32.9539C147.686 32.9539 146.653 33.2089 145.724 33.7189C144.826 34.1989 144.107 34.9339 143.568 35.9239C143.059 36.8839 142.804 38.0689 142.804 39.4789V39.9289C142.804 41.3389 143.059 42.5389 143.568 43.5289C144.107 44.4889 144.826 45.2239 145.724 45.7339C146.653 46.2139 147.686 46.4539 148.824 46.4539C150.531 46.4539 151.818 46.0189 152.687 45.1489C153.585 44.2489 154.154 43.0789 154.394 41.6389L159.874 42.9439C159.485 44.5339 158.811 45.9889 157.853 47.3089C156.924 48.5989 155.697 49.6189 154.169 50.3689C152.642 51.1189 150.815 51.4939 148.689 51.4939Z" fill="#808080"/>
<path d="M170.787 51.2239C169.05 51.2239 167.523 50.8339 166.205 50.0539C164.917 49.2439 163.914 48.1339 163.196 46.7239C162.477 45.3139 162.117 43.6939 162.117 41.8639V28.5439H167.777V41.4139C167.777 43.0939 168.182 44.3539 168.99 45.1939C169.829 46.0339 171.012 46.4539 172.539 46.4539C174.276 46.4539 175.624 45.8839 176.582 44.7439C177.54 43.5739 178.019 41.9539 178.019 39.8839V28.5439H183.679V50.8639H178.109V47.9389H177.301C176.941 48.6889 176.267 49.4239 175.279 50.1439C174.291 50.8639 172.794 51.2239 170.787 51.2239Z" fill="#808080"/>
<path d="M187.732 50.8639V28.5439H193.302V31.0639H194.11C194.44 30.1639 194.979 29.5039 195.728 29.0839C196.506 28.6639 197.405 28.4539 198.423 28.4539H201.118V33.4939H198.333C196.895 33.4939 195.713 33.8839 194.784 34.6639C193.856 35.4139 193.392 36.5839 193.392 38.1739V50.8639H187.732Z" fill="#808080"/>
<path d="M203.296 50.8639V28.5439H208.956V50.8639H203.296ZM206.126 25.9339C205.108 25.9339 204.239 25.6039 203.521 24.9439C202.832 24.2839 202.487 23.4139 202.487 22.3339C202.487 21.2539 202.832 20.3839 203.521 19.7239C204.239 19.0639 205.108 18.7339 206.126 18.7339C207.174 18.7339 208.043 19.0639 208.731 19.7239C209.42 20.3839 209.765 21.2539 209.765 22.3339C209.765 23.4139 209.42 24.2839 208.731 24.9439C208.043 25.6039 207.174 25.9339 206.126 25.9339Z" fill="#808080"/>
<path d="M223.583 51.4939C221.367 51.4939 219.376 51.0439 217.609 50.1439C215.842 49.2439 214.449 47.9389 213.431 46.2289C212.413 44.5189 211.904 42.4639 211.904 40.0639V39.3439C211.904 36.9439 212.413 34.8889 213.431 33.1789C214.449 31.4689 215.842 30.1639 217.609 29.2639C219.376 28.3639 221.367 27.9139 223.583 27.9139C225.799 27.9139 227.791 28.3639 229.558 29.2639C231.325 30.1639 232.717 31.4689 233.735 33.1789C234.753 34.8889 235.263 36.9439 235.263 39.3439V40.0639C235.263 42.4639 234.753 44.5189 233.735 46.2289C232.717 47.9389 231.325 49.2439 229.558 50.1439C227.791 51.0439 225.799 51.4939 223.583 51.4939ZM223.583 46.4539C225.32 46.4539 226.758 45.8989 227.896 44.7889C229.034 43.6489 229.603 42.0289 229.603 39.9289V39.4789C229.603 37.3789 229.034 35.7739 227.896 34.6639C226.788 33.5239 225.35 32.9539 223.583 32.9539C221.846 32.9539 220.409 33.5239 219.271 34.6639C218.133 35.7739 217.564 37.3789 217.564 39.4789V39.9289C217.564 42.0289 218.133 43.6489 219.271 44.7889C220.409 45.8989 221.846 46.4539 223.583 46.4539Z" fill="#808080"/>
<path d="M246.731 51.2239C244.994 51.2239 243.467 50.8339 242.149 50.0539C240.861 49.2439 239.858 48.1339 239.139 46.7239C238.421 45.3139 238.061 43.6939 238.061 41.8639V28.5439H243.721V41.4139C243.721 43.0939 244.126 44.3539 244.934 45.1939C245.773 46.0339 246.956 46.4539 248.483 46.4539C250.22 46.4539 251.567 45.8839 252.526 44.7439C253.484 43.5739 253.963 41.9539 253.963 39.8839V28.5439H259.623V50.8639H254.053V47.9389H253.245C252.885 48.6889 252.211 49.4239 251.223 50.1439C250.235 50.8639 248.737 51.2239 246.731 51.2239Z" fill="#808080"/>
<path d="M272.929 51.4939C270.024 51.4939 267.644 50.8639 265.787 49.6039C263.93 48.3439 262.807 46.5439 262.418 44.2039L267.629 42.8539C267.838 43.9039 268.183 44.7289 268.662 45.3289C269.171 45.9289 269.785 46.3639 270.504 46.6339C271.252 46.8739 272.061 46.9939 272.929 46.9939C274.247 46.9939 275.22 46.7689 275.849 46.3189C276.478 45.8389 276.792 45.2539 276.792 44.5639C276.792 43.8739 276.493 43.3489 275.894 42.9889C275.295 42.5989 274.337 42.2839 273.019 42.0439L271.761 41.8189C270.204 41.5189 268.782 41.1139 267.494 40.6039C266.206 40.0639 265.173 39.3289 264.394 38.3989C263.616 37.4689 263.226 36.2689 263.226 34.7989C263.226 32.5789 264.035 30.8839 265.652 29.7139C267.269 28.5139 269.396 27.9139 272.031 27.9139C274.516 27.9139 276.583 28.4689 278.23 29.5789C279.877 30.6889 280.955 32.1439 281.464 33.9439L276.208 35.5639C275.969 34.4239 275.475 33.6139 274.726 33.1339C274.007 32.6539 273.109 32.4139 272.031 32.4139C270.953 32.4139 270.129 32.6089 269.56 32.9989C268.991 33.3589 268.707 33.8689 268.707 34.5289C268.707 35.2489 269.006 35.7889 269.605 36.1489C270.204 36.4789 271.013 36.7339 272.031 36.9139L273.289 37.1389C274.966 37.4389 276.478 37.8439 277.826 38.3539C279.203 38.8339 280.281 39.5389 281.06 40.4689C281.868 41.3689 282.273 42.5989 282.273 44.1589C282.273 46.4989 281.419 48.3139 279.712 49.6039C278.035 50.8639 275.774 51.4939 272.929 51.4939Z" fill="#808080"/>
</svg>
