<svg width="299" height="72" viewBox="0 0 299 72" fill="none" xmlns="http://www.w3.org/2000/svg">
<path d="M17.7783 6.72815L25.5139 35.5497V3.86268C26.1273 3.71978 26.7473 3.59393 27.3733 3.48566V35.5527L36.0739 3.13574C36.701 3.19241 37.3229 3.26656 37.9393 3.3577L29.1686 36.0358L46.6025 5.8898C47.1705 6.14488 47.7299 6.41551 48.2803 6.70113L30.7813 36.9596L55.7634 12.0193C56.2138 12.4446 56.6522 12.8823 57.0781 13.332L32.0924 38.2759L62.4051 20.8041C62.6912 21.3536 62.9622 21.9121 63.2176 22.4792L33.0286 39.8797L65.7525 31.126C65.8438 31.7414 65.918 32.3623 65.9747 32.9883L33.5039 41.6743L65.6237 41.6743C65.5153 42.2992 65.3892 42.9181 65.246 43.5305L33.4989 43.5305L62.3744 51.2548C62.0779 51.8216 61.7653 52.3789 61.4373 52.9258L33.0259 45.3257L56.756 59.0034C56.3067 59.4646 55.8441 59.9127 55.3687 60.3472L32.0983 46.9345L49.7066 64.5134C49.1497 64.8383 48.5823 65.1473 48.0052 65.44L30.7816 48.2451L42.0667 67.7588C41.4488 67.9332 40.8236 68.0901 40.1916 68.229L29.1697 49.1704L34.4838 68.9697C34.0101 68.9898 33.5339 69 33.0553 69C32.8919 69 32.7288 68.9988 32.566 68.9964L27.3733 49.6493V68.5143C26.7473 68.406 26.1273 68.2802 25.5139 68.1373V49.6524L20.9354 66.7112C20.3514 66.4814 19.7755 66.2354 19.2083 65.9738L23.7172 49.1745L15.2531 63.8103C14.7291 63.4753 14.2152 63.1259 13.7119 62.7627L22.1095 48.2421L10.3493 59.9826C9.89885 59.5574 9.46039 59.1197 9.03446 58.6701L20.791 46.9332L6.25014 55.3144C5.8863 54.812 5.53628 54.299 5.20064 53.7759L19.8678 45.3219L3.03208 49.8255C2.77003 49.2593 2.52358 48.6844 2.29328 48.1014L19.3806 43.5305L0.864559 43.5305C0.721385 42.9181 0.595291 42.2992 0.486805 41.6743L19.3756 41.6743L0.0036025 36.4922C0.00120361 36.3284 0 36.1643 0 36C0 35.5234 0.0101187 35.0492 0.0301532 34.5776L19.8651 39.8835L0.771723 28.8783C0.91075 28.2473 1.06787 27.6231 1.2425 27.0063L20.7968 38.2771L3.56598 21.075C3.85912 20.4989 4.16871 19.9325 4.49412 19.3765L22.1097 36.9626L8.66915 13.7218C9.10436 13.2473 9.55329 12.7855 10.0153 12.337L23.7183 36.0317L16.1044 7.66345C16.6522 7.33609 17.2104 7.02413 17.7783 6.72815Z" fill="#808080"/>
<path d="M86.917 50.8636H94.111V38.3896H108.457V32.0476H94.111V26.7136H109.383V20.4136H86.917V50.8636Z" fill="#808080"/>
<path d="M121.61 32.9716C124.344 32.9716 126.532 34.6516 126.532 39.4816C126.532 44.2276 124.428 46.0336 121.61 46.0336C118.791 46.0336 116.687 44.2276 116.687 39.4816C116.687 34.6516 118.875 32.9716 121.61 32.9716ZM121.61 27.5956C115.341 27.5956 109.62 31.2916 109.62 39.4816C109.62 47.6716 115.341 51.4096 121.61 51.4096C127.878 51.4096 133.6 47.6716 133.6 39.4816C133.6 31.2916 127.878 27.5956 121.61 27.5956Z" fill="#808080"/>
<path d="M146.929 27.5956C140.072 27.5956 135.36 32.2576 135.36 39.4396C135.36 46.6216 139.483 51.4096 146.929 51.4096C151.473 51.4096 156.9 49.2676 158.456 42.5476H151.977C151.473 44.6896 149.916 46.0336 147.35 46.0336C144.868 46.0336 142.428 44.3956 142.428 39.4816C142.428 34.6516 144.868 32.9716 147.35 32.9716C149.411 32.9716 151.052 33.8956 151.683 36.5416H158.162C156.816 29.7376 151.641 27.5956 146.929 27.5956Z" fill="#808080"/>
<path d="M174.767 36.7516C165.974 37.4236 159.706 39.2296 159.706 44.7736C159.706 48.8896 163.24 51.4096 167.531 51.4096C170.77 51.4096 173.463 50.5276 175.146 48.1336L175.23 50.8636H182.045C181.709 49.4356 181.54 46.7896 181.54 44.3116V41.9596L181.625 37.0456C181.751 30.1996 178.049 27.5536 171.528 27.5536C164.796 27.5536 160.758 31.3336 160.421 35.5756H166.9C167.194 33.3916 168.709 32.2576 170.939 32.2576C173.463 32.2576 174.767 33.1816 174.767 35.8696V36.7516ZM174.935 41.3716C174.935 45.5296 172.832 46.7056 170.055 46.7056C168.246 46.7056 166.858 45.7396 166.858 44.2696C166.858 41.8336 170.097 41.2876 174.935 40.8256V41.3716Z" fill="#808080"/>
<path d="M192.129 20.4136H185.187V50.8636H192.129V20.4136Z" fill="#808080"/>
<path d="M196.555 20.4136V50.8636H203.749V40.3216H208.292C216.201 40.3216 222.133 38.3476 222.133 30.3256C222.133 22.3456 216.201 20.4136 208.292 20.4136H196.555ZM208.503 26.4616C211.868 26.4616 214.519 27.1336 214.519 30.3256C214.519 33.5176 211.868 34.2736 208.503 34.2736H203.749V26.4616H208.503Z" fill="#808080"/>
<path d="M234.329 32.9716C237.063 32.9716 239.251 34.6516 239.251 39.4816C239.251 44.2276 237.147 46.0336 234.329 46.0336C231.51 46.0336 229.406 44.2276 229.406 39.4816C229.406 34.6516 231.594 32.9716 234.329 32.9716ZM234.329 27.5956C228.06 27.5956 222.339 31.2916 222.339 39.4816C222.339 47.6716 228.06 51.4096 234.329 51.4096C240.597 51.4096 246.319 47.6716 246.319 39.4816C246.319 31.2916 240.597 27.5956 234.329 27.5956Z" fill="#808080"/>
<path d="M249.096 28.2676V50.8636H256.08V28.2676H249.096ZM249.096 20.4136V25.9576H256.038V20.4136H249.096Z" fill="#808080"/>
<path d="M267.152 28.2676H260.21V50.8636H267.152V39.2716C267.152 35.0716 268.372 33.1396 271.359 33.1396C274.725 33.1396 274.851 35.7856 274.851 39.0196V50.8636H281.792V37.2976C281.792 31.1656 279.983 27.7636 274.178 27.7636C270.602 27.7636 268.162 29.5696 267.152 31.2496V28.2676Z" fill="#808080"/>
<path d="M286.592 28.2676H283.016V33.1816H286.592V44.5216C286.592 49.7716 288.486 50.8636 294.081 50.8636H298.498V45.8656H296.521C294.207 45.8656 293.534 45.4456 293.534 43.3036V33.1816H298.498V28.2676H293.534V22.0936H286.592V28.2676Z" fill="#808080"/>
</svg>
