<svg width="297" height="72" viewBox="0 0 297 72" fill="none" xmlns="http://www.w3.org/2000/svg">
<path opacity="0.8" d="M54.4602 16.7447C53.8118 16.0964 53.1635 15.4481 52.5152 14.7997C50.5702 12.7251 48.4955 10.6504 45.9022 9.35378C42.9199 7.79779 39.6782 8.18677 36.4366 8.18677C31.5093 8.18677 19.191 8.18677 11.9297 8.18677L16.857 14.7997C25.804 14.7997 39.8079 14.7997 46.2912 14.7997C49.0142 14.7997 51.3482 15.3184 53.5525 16.7447C53.9415 16.8744 54.3305 16.8744 54.4602 16.7447Z" fill="#808080"/>
<path opacity="0.9" d="M59.9061 27.3775C59.2578 26.7292 58.6094 26.0809 57.9611 25.4325C56.0161 23.3579 53.9415 21.2832 51.3482 19.9866C48.3658 18.4306 45.1242 18.8196 41.8825 18.8196C37.6035 18.8196 27.3599 18.8196 20.0986 18.8196L25.0259 25.4325C33.8432 25.4325 45.9022 25.4325 51.8668 25.4325C54.5898 25.4325 56.9238 25.9512 59.1281 27.3775C59.3874 27.5072 59.6468 27.5072 59.9061 27.3775Z" fill="#808080"/>
<path d="M65.9999 37.7506C65.3516 37.1023 64.7033 36.4539 64.0549 35.8056C62.11 33.731 60.0353 31.6563 57.442 30.3596C54.4597 28.8036 51.218 29.1926 47.9764 29.1926C43.9567 29.1926 35.1394 29.1926 28.0078 29.1926L32.9351 35.8056C41.4931 35.8056 52.385 35.8056 57.831 35.8056C60.554 35.8056 62.888 36.3243 65.0923 37.7506C65.4813 37.8803 65.7406 38.0099 65.9999 37.7506Z" fill="#808080"/>
<path opacity="0.8" d="M11.4111 55.2555C12.0595 55.9038 12.7078 56.5521 13.3561 57.2004C15.3011 59.2751 17.3758 61.3497 19.9691 62.6464C22.9514 64.2024 26.1931 63.8134 29.4347 63.8134H53.9416L49.0143 57.2004C40.0673 57.2004 26.0634 57.2004 19.5801 57.2004C16.8571 57.2004 14.5231 56.6818 12.3188 55.2555C11.9298 55.1258 11.6705 55.1258 11.4111 55.2555Z" fill="#808080"/>
<path opacity="0.9" d="M5.96484 44.6231C6.61317 45.2715 7.2615 45.9198 7.90983 46.5681C9.85482 48.6428 11.9295 50.7174 14.5228 52.0141C17.5051 53.5701 20.7468 53.1811 23.9884 53.1811H45.7723L40.845 46.5681C32.0277 46.5681 19.9688 46.5681 14.0041 46.5681C11.2811 46.5681 8.94715 46.0495 6.74283 44.6231C6.4835 44.4935 6.22418 44.4935 5.96484 44.6231Z" fill="#808080"/>
<path d="M0 34.1197C0.64833 34.768 1.29666 35.4164 1.94499 36.0647C3.88998 38.1394 5.96465 40.214 8.55797 41.5107C11.5403 43.0667 14.7819 42.6777 18.0236 42.6777H37.9922L33.0648 36.0647C24.5069 36.0647 13.6149 36.0647 8.16896 36.0647C5.44598 36.0647 3.11198 35.546 0.907658 34.1197C0.51866 33.99 0.259332 33.99 0 34.1197Z" fill="#808080"/>
<path d="M80.8984 21.0122V51.0002H87.4924V38.6102H100.05V33.4862H87.4924V26.5562H101.982V21.0122H80.8984Z" fill="#808080"/>
<path d="M118.521 37.8122H108.819C108.847 37.3922 108.931 36.9162 109.071 36.3842C109.239 35.8522 109.505 35.3482 109.869 34.8722C110.261 34.3962 110.765 34.0042 111.381 33.6962C112.025 33.3602 112.823 33.1922 113.775 33.1922C115.231 33.1922 116.309 33.5842 117.009 34.3682C117.737 35.1522 118.241 36.3002 118.521 37.8122ZM108.819 41.5922H124.485C124.597 39.9122 124.457 38.3022 124.065 36.7622C123.673 35.2222 123.029 33.8502 122.133 32.6462C121.265 31.4422 120.145 30.4902 118.773 29.7902C117.401 29.0622 115.791 28.6982 113.943 28.6982C112.291 28.6982 110.779 28.9922 109.407 29.5802C108.063 30.1682 106.901 30.9802 105.921 32.0162C104.941 33.0242 104.185 34.2282 103.653 35.6282C103.121 37.0282 102.855 38.5402 102.855 40.1642C102.855 41.8442 103.107 43.3842 103.611 44.7842C104.143 46.1842 104.885 47.3882 105.837 48.3962C106.789 49.4042 107.951 50.1882 109.323 50.7482C110.695 51.2802 112.235 51.5462 113.943 51.5462C116.407 51.5462 118.507 50.9862 120.243 49.8662C121.979 48.7462 123.267 46.8842 124.107 44.2802H118.857C118.661 44.9522 118.129 45.5962 117.261 46.2122C116.393 46.8002 115.357 47.0942 114.153 47.0942C112.473 47.0942 111.185 46.6602 110.289 45.7922C109.393 44.9242 108.903 43.5242 108.819 41.5922Z" fill="#808080"/>
<path d="M126.51 35.9642C126.594 34.5642 126.944 33.4022 127.56 32.4782C128.176 31.5542 128.96 30.8122 129.912 30.2522C130.864 29.6922 131.928 29.3002 133.104 29.0762C134.308 28.8242 135.512 28.6982 136.716 28.6982C137.808 28.6982 138.914 28.7822 140.034 28.9502C141.154 29.0902 142.176 29.3842 143.1 29.8322C144.024 30.2802 144.78 30.9102 145.368 31.7222C145.956 32.5062 146.25 33.5562 146.25 34.8722V46.1702C146.25 47.1502 146.306 48.0882 146.418 48.9842C146.53 49.8802 146.726 50.5522 147.006 51.0002H140.958C140.846 50.6642 140.748 50.3282 140.664 49.9922C140.608 49.6282 140.566 49.2642 140.538 48.9002C139.586 49.8802 138.466 50.5662 137.178 50.9582C135.89 51.3502 134.574 51.5462 133.23 51.5462C132.194 51.5462 131.228 51.4202 130.332 51.1682C129.436 50.9162 128.652 50.5242 127.98 49.9922C127.308 49.4602 126.776 48.7882 126.384 47.9762C126.02 47.1642 125.838 46.1982 125.838 45.0782C125.838 43.8462 126.048 42.8382 126.468 42.0542C126.916 41.2422 127.476 40.5982 128.148 40.1222C128.848 39.6462 129.632 39.2962 130.5 39.0722C131.396 38.8202 132.292 38.6242 133.188 38.4842C134.084 38.3442 134.966 38.2322 135.834 38.1482C136.702 38.0642 137.472 37.9382 138.144 37.7702C138.816 37.6022 139.348 37.3642 139.74 37.0562C140.132 36.7202 140.314 36.2442 140.286 35.6282C140.286 34.9842 140.174 34.4802 139.95 34.1162C139.754 33.7242 139.474 33.4302 139.11 33.2342C138.774 33.0102 138.368 32.8702 137.892 32.8142C137.444 32.7302 136.954 32.6882 136.422 32.6882C135.246 32.6882 134.322 32.9402 133.65 33.4442C132.978 33.9482 132.586 34.7882 132.474 35.9642H126.51ZM140.286 40.3742C140.034 40.5982 139.712 40.7802 139.32 40.9202C138.956 41.0322 138.55 41.1302 138.102 41.2142C137.682 41.2982 137.234 41.3682 136.758 41.4242C136.282 41.4802 135.806 41.5502 135.33 41.6342C134.882 41.7182 134.434 41.8302 133.986 41.9702C133.566 42.1102 133.188 42.3062 132.852 42.5582C132.544 42.7822 132.292 43.0762 132.096 43.4402C131.9 43.8042 131.802 44.2662 131.802 44.8262C131.802 45.3582 131.9 45.8062 132.096 46.1702C132.292 46.5342 132.558 46.8282 132.894 47.0522C133.23 47.2482 133.622 47.3882 134.07 47.4722C134.518 47.5562 134.98 47.5982 135.456 47.5982C136.632 47.5982 137.542 47.4022 138.186 47.0102C138.83 46.6182 139.306 46.1562 139.614 45.6242C139.922 45.0642 140.104 44.5042 140.16 43.9442C140.244 43.3842 140.286 42.9362 140.286 42.6002V40.3742Z" fill="#808080"/>
<path d="M157.179 29.2862V22.7762H151.215V29.2862H147.603V33.2762H151.215V46.0862C151.215 47.1782 151.397 48.0602 151.761 48.7322C152.125 49.4042 152.615 49.9222 153.231 50.2862C153.875 50.6502 154.603 50.8882 155.415 51.0002C156.255 51.1402 157.137 51.2102 158.061 51.2102C158.649 51.2102 159.251 51.1962 159.867 51.1682C160.483 51.1402 161.043 51.0842 161.547 51.0002V46.3802C161.267 46.4362 160.973 46.4782 160.665 46.5062C160.357 46.5342 160.035 46.5482 159.699 46.5482C158.691 46.5482 158.019 46.3802 157.683 46.0442C157.347 45.7082 157.179 45.0362 157.179 44.0282V33.2762H161.547V29.2862H157.179Z" fill="#808080"/>
<path d="M163.125 21.0122V51.0002H169.089V39.6182C169.089 37.4062 169.453 35.8242 170.181 34.8722C170.909 33.8922 172.085 33.4022 173.709 33.4022C175.137 33.4022 176.131 33.8502 176.691 34.7462C177.251 35.6142 177.531 36.9442 177.531 38.7362V51.0002H183.495V37.6442C183.495 36.3002 183.369 35.0822 183.117 33.9902C182.893 32.8702 182.487 31.9322 181.899 31.1762C181.311 30.3922 180.499 29.7902 179.463 29.3702C178.455 28.9222 177.153 28.6982 175.557 28.6982C174.437 28.6982 173.289 28.9922 172.113 29.5802C170.937 30.1402 169.971 31.0502 169.215 32.3102H169.089V21.0122H163.125Z" fill="#808080"/>
<path d="M201.377 37.8122H191.675C191.703 37.3922 191.787 36.9162 191.927 36.3842C192.095 35.8522 192.361 35.3482 192.725 34.8722C193.117 34.3962 193.621 34.0042 194.237 33.6962C194.881 33.3602 195.679 33.1922 196.631 33.1922C198.087 33.1922 199.165 33.5842 199.865 34.3682C200.593 35.1522 201.097 36.3002 201.377 37.8122ZM191.675 41.5922H207.341C207.453 39.9122 207.313 38.3022 206.921 36.7622C206.529 35.2222 205.885 33.8502 204.989 32.6462C204.121 31.4422 203.001 30.4902 201.629 29.7902C200.257 29.0622 198.647 28.6982 196.799 28.6982C195.147 28.6982 193.635 28.9922 192.263 29.5802C190.919 30.1682 189.757 30.9802 188.777 32.0162C187.797 33.0242 187.041 34.2282 186.509 35.6282C185.977 37.0282 185.711 38.5402 185.711 40.1642C185.711 41.8442 185.963 43.3842 186.467 44.7842C186.999 46.1842 187.741 47.3882 188.693 48.3962C189.645 49.4042 190.807 50.1882 192.179 50.7482C193.551 51.2802 195.091 51.5462 196.799 51.5462C199.263 51.5462 201.363 50.9862 203.099 49.8662C204.835 48.7462 206.123 46.8842 206.963 44.2802H201.713C201.517 44.9522 200.985 45.5962 200.117 46.2122C199.249 46.8002 198.213 47.0942 197.009 47.0942C195.329 47.0942 194.041 46.6602 193.145 45.7922C192.249 44.9242 191.759 43.5242 191.675 41.5922Z" fill="#808080"/>
<path d="M209.619 29.2862V51.0002H215.583V41.2142C215.583 40.2342 215.681 39.3242 215.877 38.4842C216.073 37.6442 216.395 36.9162 216.843 36.3002C217.319 35.6562 217.935 35.1522 218.691 34.7882C219.447 34.4242 220.371 34.2422 221.463 34.2422C221.827 34.2422 222.205 34.2702 222.597 34.3262C222.989 34.3542 223.325 34.3962 223.605 34.4522V28.9082C223.129 28.7682 222.695 28.6982 222.303 28.6982C221.547 28.6982 220.819 28.8102 220.119 29.0342C219.419 29.2582 218.761 29.5802 218.145 30.0002C217.529 30.3922 216.983 30.8822 216.507 31.4702C216.031 32.0302 215.653 32.6462 215.373 33.3182H215.289V29.2862H209.619Z" fill="#808080"/>
<path d="M231.907 45.4562V26.5562H236.611C238.235 26.5562 239.593 26.7942 240.685 27.2702C241.805 27.7182 242.701 28.3762 243.373 29.2442C244.045 30.1122 244.521 31.1622 244.801 32.3942C245.109 33.5982 245.263 34.9562 245.263 36.4682C245.263 38.1202 245.053 39.5202 244.633 40.6682C244.213 41.8162 243.653 42.7542 242.953 43.4822C242.253 44.1822 241.455 44.6862 240.559 44.9942C239.663 45.3022 238.739 45.4562 237.787 45.4562H231.907ZM225.313 21.0122V51.0002H238.249C240.545 51.0002 242.533 50.6222 244.213 49.8662C245.921 49.0822 247.335 48.0182 248.455 46.6742C249.603 45.3302 250.457 43.7342 251.017 41.8862C251.577 40.0382 251.857 38.0222 251.857 35.8382C251.857 33.3462 251.507 31.1762 250.807 29.3282C250.135 27.4802 249.183 25.9402 247.951 24.7082C246.747 23.4762 245.305 22.5522 243.625 21.9362C241.973 21.3202 240.181 21.0122 238.249 21.0122H225.313Z" fill="#808080"/>
<path d="M269.17 37.8122H259.468C259.496 37.3922 259.58 36.9162 259.72 36.3842C259.888 35.8522 260.154 35.3482 260.518 34.8722C260.91 34.3962 261.414 34.0042 262.03 33.6962C262.674 33.3602 263.472 33.1922 264.424 33.1922C265.88 33.1922 266.958 33.5842 267.658 34.3682C268.386 35.1522 268.89 36.3002 269.17 37.8122ZM259.468 41.5922H275.134C275.246 39.9122 275.106 38.3022 274.714 36.7622C274.322 35.2222 273.678 33.8502 272.782 32.6462C271.914 31.4422 270.794 30.4902 269.422 29.7902C268.05 29.0622 266.44 28.6982 264.592 28.6982C262.94 28.6982 261.428 28.9922 260.056 29.5802C258.712 30.1682 257.55 30.9802 256.57 32.0162C255.59 33.0242 254.834 34.2282 254.302 35.6282C253.77 37.0282 253.504 38.5402 253.504 40.1642C253.504 41.8442 253.756 43.3842 254.26 44.7842C254.792 46.1842 255.534 47.3882 256.486 48.3962C257.438 49.4042 258.6 50.1882 259.972 50.7482C261.344 51.2802 262.884 51.5462 264.592 51.5462C267.056 51.5462 269.156 50.9862 270.892 49.8662C272.628 48.7462 273.916 46.8842 274.756 44.2802H269.506C269.31 44.9522 268.778 45.5962 267.91 46.2122C267.042 46.8002 266.006 47.0942 264.802 47.0942C263.122 47.0942 261.834 46.6602 260.938 45.7922C260.042 44.9242 259.552 43.5242 259.468 41.5922Z" fill="#808080"/>
<path d="M289.423 51.0002L296.773 29.2862H290.851L286.273 44.1122H286.189L281.611 29.2862H275.353L282.787 51.0002H289.423Z" fill="#808080"/>
</svg>
