<svg width="262" height="72" viewBox="0 0 262 72" fill="none" xmlns="http://www.w3.org/2000/svg">
<path d="M22.1248 29.1746C30.7497 25.0417 37.4996 18.0285 41.3745 9.26186C38.8746 6.63188 35.6246 4.75332 32.1246 3.62619L30.2497 3C30.1247 3.25047 29.9997 3.6262 29.9997 3.87668C26.9997 12.3928 20.8748 19.2808 12.6249 23.1632C6.87493 25.9184 2.62497 30.9279 0.624993 36.9393L0 38.8178C0.249997 38.9431 0.624999 39.0683 0.874996 39.0683C3.24997 39.9449 5.62494 41.0721 7.87492 42.4497C10.9999 36.814 15.9998 32.055 22.1248 29.1746Z" fill="#808080"/>
<path opacity="0.8" d="M58.3746 29.6758C53.7497 36.6891 47.3748 42.3247 39.4998 46.0819C33.1249 49.0875 28.25 54.7232 26 61.486L25.375 63.6151C27.75 65.7441 30.6249 67.3722 33.7499 68.3741L35.6249 69.0003C35.7499 68.7498 35.8749 68.3741 35.8749 68.1236C38.8748 59.6075 44.9998 52.7194 53.2497 48.8371C58.9996 46.0819 63.3746 41.0724 65.2495 35.061L65.8745 33.1824C63.2496 32.431 60.7496 31.1786 58.3746 29.6758Z" fill="#808080"/>
<path opacity="0.9" d="M20.3749 57.1025C23.4999 49.5882 29.2498 43.4516 36.6247 39.945C43.3747 36.6888 48.9996 31.6793 52.8746 25.5427C49.9996 22.7875 47.6246 19.6565 45.8746 15.8994C41.2497 24.4155 33.9998 31.3036 25.1249 35.5617C19.9999 37.9412 15.875 42.074 13.375 47.0835C16.125 49.7135 18.3749 52.9696 20.1249 56.6015C20.1249 56.6015 20.2499 56.852 20.3749 57.1025Z" fill="#808080"/>
<path d="M80.7705 50.9998H101.835V45.1498H87.5526V19.4998H80.7705V50.9998Z" fill="#808080"/>
<path d="M123.843 28.3198H117.555V40.7398C117.555 43.6198 115.624 45.7798 112.884 45.7798C110.324 45.7798 108.527 43.7998 108.527 41.0548V28.3198H102.284V42.4498C102.284 47.6248 105.608 51.3598 110.683 51.3598C113.782 51.3598 116.297 50.0098 117.555 47.8498V50.9998H123.843V28.3198Z" fill="#808080"/>
<path d="M126.179 50.9998H132.467V38.1298C132.467 35.2048 134.129 33.2698 136.734 33.2698C139.159 33.2698 140.686 35.2048 140.686 38.1298V50.9998H146.974V38.1298C146.974 35.2048 148.636 33.2698 151.241 33.2698C153.666 33.2698 155.238 35.2048 155.238 38.1298V50.9998H161.481V36.1498C161.481 31.6048 158.293 27.9598 153.352 27.9598C149.714 27.9598 146.884 29.8948 145.806 32.0998C144.728 29.3998 142.438 27.9598 138.89 27.9598C135.835 27.9598 133.68 29.4448 132.467 31.5148V28.3198H126.179V50.9998Z" fill="#808080"/>
<path d="M163.624 18.4648V25.0798H170.271V18.4648H163.624ZM163.803 50.9998H170.091V28.3198H163.803V50.9998Z" fill="#808080"/>
<path d="M172.435 50.9998H178.723V38.5798C178.723 35.6548 180.655 33.5398 183.394 33.5398C185.999 33.5398 187.751 35.5198 187.751 38.2648V50.9998H194.039V36.8698C194.039 31.6498 190.715 27.9598 185.595 27.9598C182.496 27.9598 179.981 29.2648 178.723 31.4698V28.3198H172.435V50.9998Z" fill="#808080"/>
<path d="M207.154 51.3598C214.116 51.3598 219.102 46.4098 219.102 39.6598C219.102 32.9098 214.116 27.9598 207.154 27.9598C200.193 27.9598 195.207 32.9098 195.207 39.6598C195.207 46.4098 200.193 51.3598 207.154 51.3598ZM207.154 45.9598C203.786 45.9598 201.495 43.3948 201.495 39.6598C201.495 35.8798 203.786 33.3148 207.154 33.3148C210.523 33.3148 212.814 35.8798 212.814 39.6598C212.814 43.3948 210.523 45.9598 207.154 45.9598Z" fill="#808080"/>
<path d="M241.875 28.3198H235.587V40.7398C235.587 43.6198 233.655 45.7798 230.915 45.7798C228.355 45.7798 226.559 43.7998 226.559 41.0548V28.3198H220.316V42.4498C220.316 47.6248 223.639 51.3598 228.715 51.3598C231.814 51.3598 234.329 50.0098 235.587 47.8498V50.9998H241.875V28.3198Z" fill="#808080"/>
<path d="M252.475 51.3598C257.775 51.3598 261.278 48.5248 261.278 44.2048C261.278 33.9448 248.882 39.2098 248.882 34.5748C248.882 33.1348 250.094 32.3698 251.846 32.3698C253.553 32.3698 255.304 33.4048 255.574 35.3398H261.008C260.784 30.8848 257.101 27.9598 251.666 27.9598C247.04 27.9598 243.582 30.7948 243.582 34.7998C243.582 44.3398 255.753 39.7948 255.753 44.4298C255.753 45.6898 254.406 46.6348 252.475 46.6348C250.139 46.6348 248.567 45.3748 248.343 43.3498H242.953C243.177 48.2548 246.95 51.3598 252.475 51.3598Z" fill="#808080"/>
</svg>
