<svg width="291" height="72" viewBox="0 0 291 72" fill="none" xmlns="http://www.w3.org/2000/svg">
<path d="M50.8208 35.9998C45.4892 41.9568 37.7411 45.7057 29.1174 45.7057C20.4938 45.7057 12.7457 41.9568 7.41406 35.9998C12.7457 30.0428 20.4938 26.2939 29.1174 26.2939C37.7411 26.2939 45.4892 30.0428 50.8208 35.9998Z" fill="#808080"/>
<path opacity="0.6" fill-rule="evenodd" clip-rule="evenodd" d="M0 55.4116C0 39.3304 13.0364 26.2939 29.1176 26.2939C20.494 26.2939 12.746 30.0428 7.41432 35.9998C12.746 41.9568 20.494 45.7057 29.1177 45.7057C37.7413 45.7057 45.4894 41.9568 50.821 35.9999C55.4317 41.1513 58.2353 47.954 58.2353 55.4116V66.4116C58.2353 67.841 57.0765 68.9998 55.647 68.9998H2.58823C1.15879 68.9998 0 67.841 0 66.4116V55.4116ZM50.821 35.9999C50.821 35.9998 50.821 35.9999 50.821 35.9999Z" fill="#808080"/>
<path opacity="0.8" fill-rule="evenodd" clip-rule="evenodd" d="M18.196 43.5883C14.0384 41.9049 10.358 39.289 7.41431 36C12.746 30.043 20.494 26.2941 29.1177 26.2941C37.7413 26.2941 45.4894 30.043 50.821 36C50.821 36 50.821 36 50.821 36C55.4317 30.8485 58.2353 24.0458 58.2353 16.5882V5.58824C58.2353 4.1588 57.0765 3 55.647 3L2.58824 3C1.15879 3 1.08662e-06 4.15879 9.61651e-07 5.58823L0 16.5882C-1.93416e-06 28.8071 7.52632 39.2681 18.196 43.5883Z" fill="#808080"/>
<path d="M103.716 21.6839V50.9999H97.8364V38.5259H85.2784V50.9999H79.3984V21.6839H85.2784V33.7379H97.8364V21.6839H103.716Z" fill="#808080"/>
<path d="M119.836 51.3779C117.596 51.3779 115.58 50.8879 113.788 49.9079C111.996 48.8999 110.582 47.4859 109.546 45.6659C108.538 43.8459 108.034 41.7459 108.034 39.3659C108.034 36.9859 108.552 34.8859 109.588 33.0659C110.652 31.2459 112.094 29.8459 113.914 28.8659C115.734 27.8579 117.764 27.3539 120.004 27.3539C122.244 27.3539 124.274 27.8579 126.094 28.8659C127.914 29.8459 129.342 31.2459 130.378 33.0659C131.442 34.8859 131.974 36.9859 131.974 39.3659C131.974 41.7459 131.428 43.8459 130.336 45.6659C129.272 47.4859 127.816 48.8999 125.968 49.9079C124.148 50.8879 122.104 51.3779 119.836 51.3779ZM119.836 46.2539C120.9 46.2539 121.894 46.0019 122.818 45.4979C123.77 44.9659 124.526 44.1819 125.086 43.1459C125.646 42.1099 125.926 40.8499 125.926 39.3659C125.926 37.1539 125.338 35.4599 124.162 34.2839C123.014 33.0799 121.6 32.4779 119.92 32.4779C118.24 32.4779 116.826 33.0799 115.678 34.2839C114.558 35.4599 113.998 37.1539 113.998 39.3659C113.998 41.5779 114.544 43.2859 115.636 44.4899C116.756 45.6659 118.156 46.2539 119.836 46.2539Z" fill="#808080"/>
<path d="M158.253 27.7319V50.9999H152.331V48.0599C151.575 49.0679 150.581 49.8659 149.349 50.4539C148.145 51.0139 146.829 51.2939 145.401 51.2939C143.581 51.2939 141.971 50.9159 140.571 50.1599C139.171 49.3759 138.065 48.2419 137.253 46.7579C136.469 45.2459 136.077 43.4539 136.077 41.3819V27.7319H141.957V40.5419C141.957 42.3899 142.419 43.8179 143.343 44.8259C144.267 45.8059 145.527 46.2959 147.123 46.2959C148.747 46.2959 150.021 45.8059 150.945 44.8259C151.869 43.8179 152.331 42.3899 152.331 40.5419V27.7319H158.253Z" fill="#808080"/>
<path d="M169.935 31.3439C170.691 30.1119 171.671 29.1459 172.875 28.4459C174.107 27.7459 175.507 27.3959 177.075 27.3959V33.5699H175.521C173.673 33.5699 172.273 34.0039 171.321 34.8719C170.397 35.7399 169.935 37.2519 169.935 39.4079V50.9999H164.055V27.7319H169.935V31.3439Z" fill="#808080"/>
<path d="M190.149 27.3539C191.885 27.3539 193.411 27.7039 194.727 28.4039C196.043 29.0759 197.079 29.9579 197.835 31.0499V27.7319H203.757V51.1679C203.757 53.3239 203.323 55.2419 202.455 56.9219C201.587 58.6299 200.285 59.9739 198.549 60.9539C196.813 61.9619 194.713 62.4659 192.249 62.4659C188.945 62.4659 186.229 61.6959 184.101 60.1559C182.001 58.6159 180.811 56.5159 180.531 53.8559H186.369C186.677 54.9199 187.335 55.7599 188.343 56.3759C189.379 57.0199 190.625 57.3419 192.081 57.3419C193.789 57.3419 195.175 56.8239 196.239 55.7879C197.303 54.7799 197.835 53.2399 197.835 51.1679V47.5559C197.079 48.6479 196.029 49.5579 194.685 50.2859C193.369 51.0139 191.857 51.3779 190.149 51.3779C188.189 51.3779 186.397 50.8739 184.773 49.8659C183.149 48.8579 181.861 47.4439 180.909 45.6239C179.985 43.7759 179.523 41.6619 179.523 39.2819C179.523 36.9299 179.985 34.8439 180.909 33.0239C181.861 31.2039 183.135 29.8039 184.731 28.8239C186.355 27.8439 188.161 27.3539 190.149 27.3539ZM197.835 39.3659C197.835 37.9379 197.555 36.7199 196.995 35.7119C196.435 34.6759 195.679 33.8919 194.727 33.3599C193.775 32.7999 192.753 32.5199 191.661 32.5199C190.569 32.5199 189.561 32.7859 188.637 33.3179C187.713 33.8499 186.957 34.6339 186.369 35.6699C185.809 36.6779 185.529 37.8819 185.529 39.2819C185.529 40.6819 185.809 41.9139 186.369 42.9779C186.957 44.0139 187.713 44.8119 188.637 45.3719C189.589 45.9319 190.597 46.2119 191.661 46.2119C192.753 46.2119 193.775 45.9459 194.727 45.4139C195.679 44.8539 196.435 44.0699 196.995 43.0619C197.555 42.0259 197.835 40.7939 197.835 39.3659Z" fill="#808080"/>
<path d="M215.38 19.9199V50.9999H209.5V19.9199H215.38Z" fill="#808080"/>
<path d="M219.677 39.2819C219.677 36.9299 220.139 34.8439 221.063 33.0239C222.015 31.2039 223.289 29.8039 224.885 28.8239C226.509 27.8439 228.315 27.3539 230.303 27.3539C232.039 27.3539 233.551 27.7039 234.839 28.4039C236.155 29.1039 237.205 29.9859 237.989 31.0499V27.7319H243.911V50.9999H237.989V47.5979C237.233 48.6899 236.183 49.5999 234.839 50.3279C233.523 51.0279 231.997 51.3779 230.261 51.3779C228.301 51.3779 226.509 50.8739 224.885 49.8659C223.289 48.8579 222.015 47.4439 221.063 45.6239C220.139 43.7759 219.677 41.6619 219.677 39.2819ZM237.989 39.3659C237.989 37.9379 237.709 36.7199 237.149 35.7119C236.589 34.6759 235.833 33.8919 234.881 33.3599C233.929 32.7999 232.907 32.5199 231.815 32.5199C230.723 32.5199 229.715 32.7859 228.791 33.3179C227.867 33.8499 227.111 34.6339 226.523 35.6699C225.963 36.6779 225.683 37.8819 225.683 39.2819C225.683 40.6819 225.963 41.9139 226.523 42.9779C227.111 44.0139 227.867 44.8119 228.791 45.3719C229.743 45.9319 230.751 46.2119 231.815 46.2119C232.907 46.2119 233.929 45.9459 234.881 45.4139C235.833 44.8539 236.589 44.0699 237.149 43.0619C237.709 42.0259 237.989 40.7939 237.989 39.3659Z" fill="#808080"/>
<path d="M258.558 51.3779C256.654 51.3779 254.946 51.0419 253.434 50.3699C251.922 49.6699 250.718 48.7319 249.822 47.5559C248.954 46.3799 248.478 45.0779 248.394 43.6499H254.316C254.428 44.5459 254.862 45.2879 255.618 45.8759C256.402 46.4639 257.368 46.7579 258.516 46.7579C259.636 46.7579 260.504 46.5339 261.12 46.0859C261.764 45.6379 262.086 45.0639 262.086 44.3639C262.086 43.6079 261.694 43.0479 260.91 42.6839C260.154 42.2919 258.936 41.8719 257.256 41.4239C255.52 41.0039 254.092 40.5699 252.972 40.1219C251.88 39.6739 250.928 38.9879 250.116 38.0639C249.332 37.1399 248.94 35.8939 248.94 34.3259C248.94 33.0379 249.304 31.8619 250.032 30.7979C250.788 29.7339 251.852 28.8939 253.224 28.2779C254.624 27.6619 256.262 27.3539 258.138 27.3539C260.91 27.3539 263.122 28.0539 264.774 29.4539C266.426 30.8259 267.336 32.6879 267.504 35.0399H261.876C261.792 34.1159 261.4 33.3879 260.7 32.8559C260.028 32.2959 259.118 32.0159 257.97 32.0159C256.906 32.0159 256.08 32.2119 255.492 32.6039C254.932 32.9959 254.652 33.5419 254.652 34.2419C254.652 35.0259 255.044 35.6279 255.828 36.0479C256.612 36.4399 257.83 36.8459 259.482 37.2659C261.162 37.6859 262.548 38.1199 263.64 38.5679C264.732 39.0159 265.67 39.7159 266.454 40.6679C267.266 41.5919 267.686 42.8239 267.714 44.3639C267.714 45.7079 267.336 46.9119 266.58 47.9759C265.852 49.0399 264.788 49.8799 263.388 50.4959C262.016 51.0839 260.406 51.3779 258.558 51.3779Z" fill="#808080"/>
<path d="M281.445 51.3779C279.541 51.3779 277.833 51.0419 276.321 50.3699C274.809 49.6699 273.605 48.7319 272.709 47.5559C271.841 46.3799 271.365 45.0779 271.281 43.6499H277.203C277.315 44.5459 277.749 45.2879 278.505 45.8759C279.289 46.4639 280.255 46.7579 281.403 46.7579C282.523 46.7579 283.391 46.5339 284.007 46.0859C284.651 45.6379 284.973 45.0639 284.973 44.3639C284.973 43.6079 284.581 43.0479 283.797 42.6839C283.041 42.2919 281.823 41.8719 280.143 41.4239C278.407 41.0039 276.979 40.5699 275.859 40.1219C274.767 39.6739 273.815 38.9879 273.003 38.0639C272.219 37.1399 271.827 35.8939 271.827 34.3259C271.827 33.0379 272.191 31.8619 272.919 30.7979C273.675 29.7339 274.739 28.8939 276.111 28.2779C277.511 27.6619 279.149 27.3539 281.025 27.3539C283.797 27.3539 286.009 28.0539 287.661 29.4539C289.313 30.8259 290.223 32.6879 290.391 35.0399H284.763C284.679 34.1159 284.287 33.3879 283.587 32.8559C282.915 32.2959 282.005 32.0159 280.857 32.0159C279.793 32.0159 278.967 32.2119 278.379 32.6039C277.819 32.9959 277.539 33.5419 277.539 34.2419C277.539 35.0259 277.931 35.6279 278.715 36.0479C279.499 36.4399 280.717 36.8459 282.369 37.2659C284.049 37.6859 285.435 38.1199 286.527 38.5679C287.619 39.0159 288.557 39.7159 289.341 40.6679C290.153 41.5919 290.573 42.8239 290.601 44.3639C290.601 45.7079 290.223 46.9119 289.467 47.9759C288.739 49.0399 287.675 49.8799 286.275 50.4959C284.903 51.0839 283.293 51.3779 281.445 51.3779Z" fill="#808080"/>
</svg>
