<svg width="53" height="53" viewBox="0 0 53 53" fill="none" xmlns="http://www.w3.org/2000/svg">
<path d="M39.1673 18.1689C39.1673 25.3486 33.347 31.1689 26.1673 31.1689M39.1673 18.1689C39.1673 10.9892 33.347 5.16895 26.1673 5.16895M39.1673 18.1689H13.1673M26.1673 31.1689C18.9876 31.1689 13.1673 25.3486 13.1673 18.1689M26.1673 31.1689C28.5606 31.1689 30.5006 25.3486 30.5006 18.1689C30.5006 10.9892 28.5606 5.16895 26.1673 5.16895M26.1673 31.1689C23.7741 31.1689 21.834 25.3486 21.834 18.1689C21.834 10.9892 23.7741 5.16895 26.1673 5.16895M26.1673 31.1689V37.6689M13.1673 18.1689C13.1673 10.9892 18.9876 5.16895 26.1673 5.16895M29.4173 40.9189C29.4173 39.124 27.9622 37.6689 26.1673 37.6689M29.4173 40.9189C29.4173 42.7139 27.9622 44.1689 26.1673 44.1689M29.4173 40.9189H43.5006M26.1673 37.6689C24.3724 37.6689 22.9173 39.124 22.9173 40.9189M22.9173 40.9189C22.9173 42.7139 24.3724 44.1689 26.1673 44.1689M22.9173 40.9189H8.83398M26.1673 44.1689V48.5023" stroke="black" stroke-width="3" stroke-linecap="round"/>
</svg>
