<svg width="53" height="53" viewBox="0 0 53 53" fill="none" xmlns="http://www.w3.org/2000/svg">
<path d="M34.9663 10.0372C35.5521 10.623 36.5018 10.623 37.0876 10.0372C37.6734 9.45143 37.6734 8.50168 37.0876 7.9159L34.9663 10.0372ZM21.1777 12.5121C20.5919 13.0979 20.5919 14.0476 21.1777 14.6334C21.7635 15.2192 22.7132 15.2192 23.299 14.6334L21.1777 12.5121ZM16.5815 7.9159C15.9957 8.50168 15.9957 9.45143 16.5815 10.0372C17.1673 10.623 18.117 10.623 18.7028 10.0372L16.5815 7.9159ZM30.3701 14.6334C30.9559 15.2192 31.9056 15.2192 32.4914 14.6334C33.0772 14.0476 33.0772 13.0979 32.4914 12.5121L30.3701 14.6334ZM5.16797 26.8356L3.66797 26.8356L5.16797 26.8356ZM13.8346 18.1689L13.8346 19.6689L13.8346 18.1689ZM13.8346 39.8356L13.8346 38.3356L13.8346 38.3356L13.8346 39.8356ZM5.16797 31.1689L6.66797 31.1689L5.16797 31.1689ZM48.5013 31.1689L50.0013 31.1689V31.1689H48.5013ZM39.8346 39.8356L39.8346 41.3356L39.8346 41.3356L39.8346 39.8356ZM48.5013 26.8356L47.0013 26.8356V26.8356H48.5013ZM39.8346 18.1689L39.8346 16.6689L39.8346 18.1689ZM7.33463 31.8356H5.83463V34.8356H7.33463V31.8356ZM46.3346 34.8356H47.8346V31.8356H46.3346V34.8356ZM34.0013 48.5023C34.0013 49.3307 34.6729 50.0023 35.5013 50.0023C36.3297 50.0023 37.0013 49.3307 37.0013 48.5023H34.0013ZM37.0013 45.2523C37.0013 44.4239 36.3297 43.7523 35.5013 43.7523C34.6729 43.7523 34.0013 44.4239 34.0013 45.2523H37.0013ZM25.3346 48.5023C25.3346 49.3307 26.0062 50.0023 26.8346 50.0023C27.6631 50.0023 28.3346 49.3307 28.3346 48.5023H25.3346ZM28.3346 45.2523C28.3346 44.4239 27.6631 43.7523 26.8346 43.7523C26.0062 43.7523 25.3346 44.4239 25.3346 45.2523H28.3346ZM16.668 48.5023C16.668 49.3307 17.3395 50.0023 18.168 50.0023C18.9964 50.0023 19.668 49.3307 19.668 48.5023H16.668ZM19.668 45.2523C19.668 44.4239 18.9964 43.7523 18.168 43.7523C17.3395 43.7523 16.668 44.4239 16.668 45.2523H19.668ZM26.8346 5.16895V6.66895C30.0106 6.66895 32.8836 7.95448 34.9663 10.0372L36.0269 8.97656L37.0876 7.9159C34.4653 5.29356 30.8382 3.66895 26.8346 3.66895V5.16895ZM22.2384 13.5728L23.299 14.6334C24.2055 13.7269 25.4534 13.1689 26.8346 13.1689V11.6689V10.1689C24.6258 10.1689 22.6238 11.066 21.1777 12.5121L22.2384 13.5728ZM17.6422 8.97656L18.7028 10.0372C20.7856 7.95448 23.6585 6.66895 26.8346 6.66895V5.16895V3.66895C22.8309 3.66895 19.2039 5.29356 16.5815 7.9159L17.6422 8.97656ZM26.8346 11.6689V13.1689C28.2157 13.1689 29.4636 13.7269 30.3701 14.6334L31.4308 13.5728L32.4914 12.5121C31.0453 11.066 29.0433 10.1689 26.8346 10.1689V11.6689ZM48.5013 26.8356H47.0013V31.1689H48.5013H50.0013V26.8356H48.5013ZM39.8346 39.8356L39.8346 38.3356L13.8346 38.3356L13.8346 39.8356L13.8346 41.3356L39.8346 41.3356L39.8346 39.8356ZM5.16797 31.1689L6.66797 31.1689L6.66797 26.8356L5.16797 26.8356L3.66797 26.8356L3.66797 31.1689L5.16797 31.1689ZM13.8346 18.1689L13.8346 19.6689L39.8346 19.6689L39.8346 18.1689L39.8346 16.6689L13.8346 16.6689L13.8346 18.1689ZM5.16797 26.8356L6.66797 26.8356C6.66797 22.8776 9.8766 19.6689 13.8346 19.6689L13.8346 18.1689L13.8346 16.6689C8.21974 16.6689 3.66797 21.2207 3.66797 26.8356L5.16797 26.8356ZM13.8346 39.8356L13.8346 38.3356C9.87659 38.3356 6.66797 35.127 6.66797 31.1689L5.16797 31.1689L3.66797 31.1689C3.66797 36.7838 8.21974 41.3356 13.8346 41.3356L13.8346 39.8356ZM48.5013 31.1689L47.0013 31.1689C47.0013 35.127 43.7927 38.3356 39.8346 38.3356L39.8346 39.8356L39.8346 41.3356C45.4495 41.3356 50.0013 36.7838 50.0013 31.1689L48.5013 31.1689ZM48.5013 26.8356L50.0013 26.8356C50.0013 21.2207 45.4495 16.6689 39.8346 16.6689L39.8346 18.1689L39.8346 19.6689C43.7927 19.6689 47.0013 22.8776 47.0013 26.8356L48.5013 26.8356ZM7.33463 33.3356V34.8356H46.3346V33.3356V31.8356H7.33463V33.3356ZM35.5013 48.5023H37.0013V45.2523H35.5013H34.0013V48.5023H35.5013ZM26.8346 48.5023H28.3346V45.2523H26.8346H25.3346V48.5023H26.8346ZM18.168 48.5023H19.668V45.2523H18.168H16.668V48.5023H18.168Z" fill="black"/>
</svg>
