<svg width="24" height="24" viewBox="0 0 24 24" fill="none" xmlns="http://www.w3.org/2000/svg">
<g clip-path="url(#clip0_1_1212)">
<circle cx="12" cy="12" r="10" fill="white"/>
<path d="M12 0C5.37267 0 0 5.37258 0 12C0 18.6274 5.37267 24 12 24C18.6273 24 24 18.6274 24 12C24 5.37258 18.6273 0 12 0ZM16.1475 12.6361L10.1475 16.3861C10.0261 16.4619 9.88805 16.5 9.75 16.5C9.62494 16.5 9.49969 16.4689 9.38634 16.4059C9.14794 16.2737 9 16.0228 9 15.75V8.25C9 7.97719 9.14794 7.72631 9.38634 7.59412C9.62475 7.46119 9.91627 7.46925 10.1475 7.61391L16.1475 11.3639C16.3667 11.5012 16.5 11.7415 16.5 12C16.5 12.2585 16.3667 12.4988 16.1475 12.6361Z" fill="#F43C00"/>
</g>
<defs>
<clipPath id="clip0_1_1212">
<rect width="24" height="24" fill="white"/>
</clipPath>
</defs>
</svg>
