<svg width="53" height="53" viewBox="0 0 53 53" fill="none" xmlns="http://www.w3.org/2000/svg">
<path d="M47.8353 26.8356C47.8353 14.8694 38.1347 5.16895 26.1686 5.16895C14.2024 5.16895 4.50195 14.8694 4.50195 26.8356C4.50195 38.8017 14.2024 48.5023 26.1686 48.5023" stroke="black" stroke-width="3" stroke-linecap="round"/>
<path d="M43.5026 13.1834C41.4774 13.3294 38.8835 14.1135 37.0847 16.4416C33.836 20.6468 30.5871 20.9977 28.4213 19.5959C25.1724 17.4934 27.9026 14.0877 24.0895 12.2369C21.6044 11.0307 21.2579 7.74825 22.6411 5.16895" stroke="black" stroke-width="3" stroke-linejoin="round"/>
<path d="M4.50195 24.6689C6.15404 26.1035 8.46795 27.4167 11.1942 27.4167C16.8269 27.4167 17.9534 28.4929 17.9534 32.7978C17.9534 37.1028 17.9534 37.1028 19.08 40.3313C19.8127 42.4315 20.0688 44.5316 18.6083 46.3356" stroke="black" stroke-width="3" stroke-linejoin="round"/>
<path d="M43.2832 44.0147L47.8359 48.5024M45.9039 37.7686C45.9039 42.6101 41.9712 46.5349 37.1199 46.5349C32.2687 46.5349 28.3359 42.6101 28.3359 37.7686C28.3359 32.9272 32.2687 29.0024 37.1199 29.0024C41.9712 29.0024 45.9039 32.9272 45.9039 37.7686Z" stroke="black" stroke-width="3" stroke-linecap="round"/>
</svg>
